<svg viewBox="0 0 560 278" xmlns="http://www.w3.org/2000/svg">
  <g id="Symbols" stroke="none" stroke-width="1" fill="none" fill-rule="evenodd">
    <g id="logo-copy">
      <g id="logo">
        <path d="M364.93831,105.196665 L363.741225,110.882819 L356.70835,110.882819 L357.905435,105.196665 L364.93831,105.196665 Z M362.643897,116.020309 L357.306893,141.208973 L350.274018,141.208973 L355.611022,116.020309 L362.643897,116.020309 Z M385.987055,123.202819 L382.146407,141.208973 L375.113532,141.208973 L378.405516,125.696746 C378.837799,123.834605 379.053937,122.554402 379.053937,121.856098 C379.053937,120.55925 378.438775,119.910835 377.208431,119.910835 C376.210855,119.910835 375.412807,120.268295 374.814261,120.983224 C374.215716,121.698153 373.800065,122.587645 373.567298,123.651726 L369.826407,141.208973 L362.793532,141.208973 L368.130536,116.020309 L375.063654,116.020309 L374.614747,118.564115 L375.612318,117.566544 C376.277368,116.934746 377.075417,116.435965 378.006488,116.070188 C378.937559,115.70441 379.968372,115.521524 381.098958,115.521524 C382.828089,115.521524 384.141544,115.945487 385.039362,116.793426 C385.937181,117.641366 386.386083,118.863378 386.386083,120.459499 C386.386083,121.12455 386.253075,122.038981 385.987055,123.202819 Z M400.601468,109.037313 L399.105111,116.020309 L402.995638,116.020309 L402.047945,120.509378 L398.157419,120.509378 L395.214585,134.47537 C395.14808,134.841148 395.114828,135.12379 395.114828,135.323305 C395.114828,135.955103 395.264462,136.379066 395.563735,136.595208 C395.863008,136.811349 396.361788,136.919418 397.060091,136.919418 C397.691889,136.919418 398.140792,136.902792 398.406812,136.86954 L397.508998,141.258852 C396.810695,141.325357 396.170593,141.375235 395.588674,141.408487 C395.006755,141.44174 394.532913,141.458366 394.167136,141.458366 C391.972469,141.458366 390.434562,141.034402 389.55337,140.186463 C388.672178,139.338523 388.231589,138.116511 388.231589,136.52039 C388.231589,136.054855 388.273154,135.547761 388.356285,134.999094 C388.439417,134.450428 388.53086,133.943334 388.630617,133.477799 L391.373937,120.509378 L388.480982,120.509378 L389.428674,116.020309 L392.371508,116.020309 L393.269322,111.930269 L400.601468,109.037313 Z M422.448269,129.736908 L409.130698,129.736908 L408.582034,132.230835 C408.382519,133.028896 408.282763,133.843571 408.282763,134.674884 C408.282763,136.404015 409.080812,137.268568 410.676933,137.268568 C411.574751,137.268568 412.3728,136.936048 413.071103,136.270997 C413.769406,135.605947 414.251561,134.4255 414.517581,132.729621 L421.650213,132.729621 C420.852152,135.822106 419.480506,138.091557 417.535233,139.538042 C415.58996,140.984527 413.054493,141.707758 409.928755,141.707758 C407.069038,141.707758 404.957534,141.100909 403.59418,139.887192 C402.230827,138.673474 401.54916,136.786422 401.54916,134.225977 C401.54916,131.100239 402.330583,127.193126 403.893451,122.50452 C405.45632,117.815913 409.2138,115.471645 415.166002,115.471645 C417.992467,115.471645 420.095658,116.053556 421.475638,117.217394 C422.855618,118.381232 423.545597,120.22672 423.545597,122.753912 C423.545597,123.585225 423.462467,124.549534 423.296204,125.646868 C423.129942,126.744201 422.8473,128.107534 422.448269,129.736908 Z M416.013937,125.846382 C416.412968,124.183755 416.61248,123.069813 416.61248,122.50452 C416.61248,121.573449 416.396342,120.908408 415.964059,120.509378 C415.531776,120.110347 414.983117,119.910835 414.318067,119.910835 C413.187481,119.910835 412.264737,120.401303 411.549808,121.382252 C410.834878,122.363202 410.294533,123.85123 409.928755,125.846382 L416.013937,125.846382 Z M443.048107,115.621281 L441.751265,121.80622 C441.451992,121.772967 441.152724,121.756341 440.853451,121.756341 C438.692037,121.756341 437.145818,122.246809 436.214747,123.227758 C435.283676,124.208708 434.618636,125.696736 434.219605,127.691888 L431.32665,141.208973 L424.293775,141.208973 L429.630779,116.020309 L436.314504,116.020309 L435.666083,119.262414 C436.597154,117.932313 437.619654,116.992943 438.733613,116.444277 C439.847573,115.89561 441.169341,115.621281 442.698957,115.621281 L443.048107,115.621281 Z M462.650374,125.148082 L460.455719,135.223548 C460.389214,135.423063 460.272831,136.013287 460.106569,136.994236 C459.940306,137.975186 459.774046,139.380084 459.607783,141.208973 L453.073694,141.208973 L453.422844,137.867111 C452.358763,139.197212 451.228194,140.161521 450.031103,140.760066 C448.834012,141.358612 447.537183,141.65788 446.140577,141.65788 C442.615809,141.65788 440.820199,139.895522 440.753694,136.370754 C440.820199,133.245017 441.726317,130.626419 443.472075,128.514884 C445.217833,126.403348 448.50147,125.347596 453.323087,125.347596 L455.767136,125.347596 C456.265924,122.986667 456.515314,121.623334 456.515314,121.257556 C456.515314,120.592505 456.340741,120.110351 455.991589,119.811078 C455.642438,119.511805 455.035588,119.362171 454.171022,119.362171 C453.173446,119.362171 452.383711,119.669753 451.801791,120.284924 C451.219872,120.900096 450.779283,121.90597 450.48001,123.302576 L443.846164,123.302576 C444.211942,120.742132 445.28432,118.813514 447.06333,117.516665 C448.84234,116.219817 451.544068,115.554776 455.168593,115.521524 C458.028311,115.521524 460.07331,116.045243 461.303654,117.092698 C462.533997,118.140152 463.14916,119.611555 463.14916,121.506949 C463.14916,122.471272 462.9829,123.684971 462.650374,125.148082 Z M455.168593,129.038609 L454.320658,129.038609 C451.560698,129.038609 449.781715,129.645458 448.983654,130.859175 C448.185593,132.072893 447.769943,133.560921 447.73669,135.323305 C447.73669,136.719911 448.401731,137.418204 449.731832,137.418204 C450.962176,137.418204 451.976362,136.894484 452.774423,135.84703 C453.572484,134.799575 454.137768,133.511059 454.470294,131.981443 L455.168593,129.038609 Z M487.390132,124.998447 L480.656528,124.998447 C480.922549,123.535335 481.055557,122.604279 481.055557,122.205248 C481.055557,121.44044 480.864357,120.891782 480.481953,120.559256 C480.099549,120.226731 479.542578,120.060471 478.811022,120.060471 C477.680436,120.060471 476.757692,120.451182 476.042763,121.232617 C475.327834,122.014051 474.587976,124.158807 473.823168,127.666949 C473.05836,131.17509 472.675962,133.444541 472.675962,134.47537 C472.675962,135.339935 472.842222,135.98835 473.174747,136.420633 C473.507272,136.852916 474.105809,137.08568 474.970374,137.118932 C476.10096,137.118932 477.015391,136.711595 477.713694,135.896908 C478.411997,135.082221 478.94403,133.760453 479.309808,131.931564 L486.093289,131.931564 C485.428239,135.256817 484.148036,137.684215 482.252642,139.213831 C480.357248,140.743448 477.697085,141.52487 474.272075,141.558123 C471.412357,141.558123 469.300854,140.967899 467.9375,139.787435 C466.574146,138.60697 465.89248,136.719917 465.89248,134.12622 C465.89248,130.83422 466.690528,126.927106 468.28665,122.404762 C469.882771,117.882419 473.64025,115.621281 479.5592,115.621281 C482.385665,115.621281 484.463917,116.111748 485.794018,117.092698 C487.124119,118.073647 487.78916,119.644806 487.78916,121.80622 C487.78916,122.637533 487.656152,123.701598 487.390132,124.998447 Z M502.15418,109.037313 L500.657824,116.020309 L504.54835,116.020309 L503.600658,120.509378 L499.710132,120.509378 L496.767298,134.47537 C496.700792,134.841148 496.66754,135.12379 496.66754,135.323305 C496.66754,135.955103 496.817175,136.379066 497.116447,136.595208 C497.41572,136.811349 497.914501,136.919418 498.612804,136.919418 C499.244602,136.919418 499.693504,136.902792 499.959524,136.86954 L499.06171,141.258852 C498.363407,141.325357 497.723306,141.375235 497.141387,141.408487 C496.559467,141.44174 496.085626,141.458366 495.719848,141.458366 C493.525181,141.458366 491.987275,141.034402 491.106083,140.186463 C490.224891,139.338523 489.784302,138.116511 489.784302,136.52039 C489.784302,136.054855 489.825867,135.547761 489.908998,134.999094 C489.992129,134.450428 490.083572,133.943334 490.18333,133.477799 L492.92665,120.509378 L490.033694,120.509378 L490.981387,116.020309 L493.924221,116.020309 L494.822034,111.930269 L502.15418,109.037313 Z M516.918229,105.196665 L515.721144,110.882819 L508.688269,110.882819 L509.885354,105.196665 L516.918229,105.196665 Z M514.623816,116.020309 L509.286812,141.208973 L502.253937,141.208973 L507.590941,116.020309 L514.623816,116.020309 Z M524.549646,116.020309 L524.150617,134.924277 L531.881791,116.020309 L539.064302,116.020309 L526.79418,141.208973 L519.063006,141.208973 L517.716285,116.020309 L524.549646,116.020309 Z M558.516933,129.736908 L545.199362,129.736908 L544.650698,132.230835 C544.451183,133.028896 544.351427,133.843571 544.351427,134.674884 C544.351427,136.404015 545.149476,137.268568 546.745597,137.268568 C547.643415,137.268568 548.441464,136.936048 549.139767,136.270997 C549.83807,135.605947 550.320225,134.4255 550.586245,132.729621 L557.718876,132.729621 C556.920816,135.822106 555.54917,138.091557 553.603897,139.538042 C551.658624,140.984527 549.123157,141.707758 545.997419,141.707758 C543.137702,141.707758 541.026198,141.100909 539.662844,139.887192 C538.29949,138.673474 537.617824,136.786422 537.617824,134.225977 C537.617824,131.100239 538.399247,127.193126 539.962115,122.50452 C541.524984,117.815913 545.282463,115.471645 551.234666,115.471645 C554.061131,115.471645 556.164322,116.053556 557.544302,117.217394 C558.924281,118.381232 559.614261,120.22672 559.614261,122.753912 C559.614261,123.585225 559.531131,124.549534 559.364868,125.646868 C559.198606,126.744201 558.915963,128.107534 558.516933,129.736908 Z M552.082601,125.846382 C552.481631,124.183755 552.681144,123.069813 552.681144,122.50452 C552.681144,121.573449 552.465005,120.908408 552.032723,120.509378 C551.60044,120.110347 551.051781,119.910835 550.386731,119.910835 C549.256145,119.910835 548.333401,120.401303 547.618472,121.382252 C546.903542,122.363202 546.363197,123.85123 545.997419,125.846382 L552.082601,125.846382 Z" id="interactive" fill="#000" fill-rule="nonzero"></path>
        <path d="M332.393254,136.676241 L335.277644,136.676241 L335.277644,132.583741 L342.413047,129.373874 L342.413047,136.676241 L346.109853,136.676241 L346.109853,141.111636 L342.413047,141.111636 L342.413047,154.887711 C342.413047,156.83395 342.356366,158.110277 344.686551,158.110277 C345.14629,158.110277 345.60288,158.110277 345.955557,157.999154 L345.955557,162.440898 C344.988845,162.545671 343.9749,162.701244 342.261899,162.701244 C336.086911,162.701244 335.277644,158.564294 335.277644,156.983173 L335.277644,141.111636 L332.393254,141.111636 L332.393254,136.676241 Z M319.63077,154.179698 C319.592984,155.344902 319.63077,156.475182 319.989745,157.281617 C320.399101,158.094402 321.154837,158.507145 322.571841,158.507145 C323.991994,158.507145 325.210617,157.595936 325.210617,155.865593 C325.210617,150.398342 312.655962,151.63022 312.655962,143.407119 C312.655962,137.85097 318.119299,136.158726 322.732435,136.158726 C327.584886,136.158726 331.987046,138.508183 331.583987,144.077032 L324.593433,144.077032 C324.593433,142.286365 324.388755,141.216409 323.88808,140.752867 C323.428341,140.295676 322.826902,140.190903 322.074315,140.190903 C320.496717,140.190903 319.63077,141.216409 319.63077,142.943578 C319.63077,147.023378 332.188575,146.826532 332.188575,155.097257 C332.188575,159.580275 328.542151,162.955239 322.619074,162.955239 C316.396852,162.955239 312.246605,161.367768 312.655962,154.179698 L319.63077,154.179698 Z M297.424742,162.644095 L290.478274,136.676241 L297.563294,136.676241 L301.212867,154.789287 L301.323078,154.789287 L305.161585,136.676241 L312.054522,136.676241 L302.176429,172.181621 L294.685201,172.181621 L297.424742,162.644095 Z M280.663159,162.440898 L287.801711,162.440898 L287.801711,125.595693 L280.663159,125.595693 L280.663159,162.440898 Z M275.398202,144.772344 C275.398202,140.089304 274.236258,136.158726 265.183177,136.158726 C262.446785,136.158726 260.1166,136.619092 258.494918,137.85097 C256.829151,139.019349 255.862439,141.006863 255.862439,144.115131 L262.849844,144.115131 C262.849844,142.079993 263.051373,140.190903 265.529556,140.190903 C268.111652,140.190903 268.420244,141.775199 268.420244,143.965909 L268.420244,145.956598 C261.788665,145.851825 255.261,146.216943 255.261,154.732138 C255.261,159.221507 257.081063,162.955239 262.040577,162.955239 C265.129646,162.955239 267.204769,161.682087 268.722538,159.02466 L268.823303,159.02466 L269.131895,162.440898 L275.754027,162.440898 C275.60288,160.859777 275.398202,159.221507 275.398202,157.646735 L275.398202,144.772344 Z M268.420244,150.001474 C268.420244,152.798599 269.078364,158.507145 264.877734,158.507145 C262.544401,158.507145 262.238958,156.26881 262.238958,154.433694 C262.238958,149.833202 264.877734,150.144347 268.420244,150.001474 L268.420244,150.001474 Z M240.325777,136.676241 L243.216465,136.676241 L243.216465,132.583741 L250.34557,129.373874 L250.34557,136.676241 L254.045525,136.676241 L254.045525,141.111636 L250.34557,141.111636 L250.34557,154.887711 C250.34557,156.83395 250.298337,158.094402 252.625372,158.094402 C253.081962,158.094402 253.538553,158.094402 253.88808,157.999154 L253.88808,162.440898 C252.930815,162.545671 251.920019,162.701244 250.194423,162.701244 C244.019434,162.701244 243.216465,158.564294 243.216465,156.983173 L243.216465,141.111636 L240.325777,141.111636 L240.325777,136.676241 Z M238.556097,144.772344 C238.556097,140.089304 237.391004,136.158726 228.334774,136.158726 C225.598382,136.158726 223.268197,136.619092 221.652813,137.85097 C219.980748,139.019349 219.017185,141.006863 219.017185,144.115131 L226.00459,144.115131 C226.00459,142.079993 226.20297,140.190903 228.687451,140.190903 C231.269547,140.190903 231.571841,141.775199 231.571841,143.965909 L231.571841,145.956598 C224.940262,145.851825 218.406299,146.216943 218.406299,154.732138 C218.406299,159.221507 220.23266,162.955239 225.195323,162.955239 C228.278094,162.955239 230.359515,161.682087 231.867837,159.02466 L231.9749,159.02466 L232.280343,162.440898 L238.911922,162.440898 C238.751328,160.859777 238.556097,159.221507 238.556097,157.646735 L238.556097,144.772344 Z M231.571841,150.001474 C231.571841,152.798599 232.226812,158.507145 228.026182,158.507145 C225.705444,158.507145 225.396852,156.26881 225.396852,154.433694 C225.396852,149.833202 228.026182,150.144347 231.571841,150.001474 L231.571841,150.001474 Z M194.978499,162.440898 L194.978499,125.592518 L202.113901,125.592518 L202.113901,147.544069 L202.211517,147.544069 L208.644715,136.676241 L216.082412,136.676241 L208.843096,148.160008 L216.894828,162.440898 L208.843096,162.440898 L202.211517,148.407653 L202.113901,148.407653 L202.113901,162.440898 L194.978499,162.440898 Z" id="katalyst" fill="#000"></path>
        <g id="icon" fill="#FF5900">
          <path d="M154.935621,182.449466 C153.573969,183.183628 152.02407,183.588359 150.37691,183.588359 C144.980501,183.588359 140.591212,179.208483 140.591212,173.815211 C140.591212,172.161776 141.005355,170.618152 141.72383,169.24395 L131.505164,159.022146 C130.143512,159.746897 128.590476,160.157902 126.946453,160.157902 C121.546906,160.157902 117.160755,155.774888 117.160755,150.375341 C117.160755,144.985207 121.546906,140.595918 126.946453,140.595918 C128.590476,140.595918 130.143512,141.006924 131.502027,141.728537 L141.72383,131.500458 C141.005355,130.135669 140.591212,128.592044 140.591212,126.948022 C140.591212,121.545338 144.980501,117.162324 150.37691,117.162324 C152.02407,117.162324 153.573969,117.570192 154.935621,118.288667 L165.157425,108.073139 C164.435812,106.708349 164.027944,105.15845 164.027944,103.505015 C164.027944,98.1211558 168.414095,93.7287296 173.813642,93.7287296 C179.200639,93.7287296 183.596203,98.1211558 183.596203,103.505015 C183.596203,108.9077 179.200639,113.296989 173.813642,113.296989 C172.163345,113.296989 170.613446,112.882846 169.248656,112.158095 C166.387304,115.025722 162.823164,118.589862 159.02999,122.386174 C159.75474,123.744688 160.162608,125.294587 160.162608,126.948022 C160.162608,132.341294 155.776457,136.724308 150.37691,136.724308 C148.72975,136.724308 147.176714,136.319577 145.821337,135.597964 C141.874428,139.544873 138.285188,143.134113 135.596396,145.810356 C136.318009,147.178283 136.729014,148.734456 136.729014,150.375341 C136.729014,152.019364 136.318009,153.575538 135.596396,154.934052 C138.285188,157.625982 141.874428,161.208947 145.821337,165.155856 C147.179851,164.440518 148.732888,164.023237 150.37691,164.023237 C155.776457,164.023237 160.162608,168.409389 160.162608,173.815211 C160.162608,175.452958 159.75474,177.002857 159.02999,178.367647 C162.823164,182.160821 166.387304,185.728098 169.248656,188.595725 C170.613446,187.867837 172.163345,187.456832 173.813642,187.456832 C179.200639,187.456832 183.596203,191.836708 183.596203,197.24253 C183.596203,202.635802 179.200639,207.021953 173.813642,207.021953 C168.414095,207.021953 164.027944,202.635802 164.027944,197.24253 C164.027944,195.592233 164.435812,194.042334 165.157425,192.677544 L154.935621,182.449466 Z" id="Fill-1"></path>
          <path d="M126.945512,234.32151 C132.341922,234.32151 136.73121,238.720211 136.73121,244.113483 C136.73121,249.51303 132.341922,253.899182 126.945512,253.899182 C121.549103,253.899182 117.159814,249.51303 117.159814,244.113483 C117.159814,238.720211 121.549103,234.32151 126.945512,234.32151" id="Fill-3"></path>
          <path d="M126.945512,257.754163 C132.341922,257.754163 136.73121,262.140315 136.73121,267.539861 C136.73121,272.926859 132.341922,277.32556 126.945512,277.32556 C121.549103,277.32556 117.159814,272.926859 117.159814,267.539861 C117.159814,262.140315 121.549103,257.754163 126.945512,257.754163" id="Fill-5"></path>
          <path d="M112.166566,154.935307 C115.956603,158.728481 119.52388,162.295759 122.38837,165.157111 C123.750022,164.438635 125.299921,164.021355 126.943943,164.021355 C132.34349,164.021355 136.729642,168.410644 136.729642,173.816466 C136.729642,179.2066 132.34349,183.589614 126.943943,183.589614 C121.547534,183.589614 117.161383,179.2066 117.161383,173.816466 C117.161383,172.159893 117.578663,170.616269 118.290864,169.245205 L108.072198,159.023401 C106.707408,159.745014 105.160646,160.15602 103.516624,160.15602 C98.1139397,160.15602 93.7277883,155.776143 93.7277883,150.376596 C93.7277883,148.732574 94.1387939,147.1764 94.8635443,145.811611 L84.6386034,135.596082 C83.2769512,136.314557 81.7270522,136.722426 80.0767549,136.722426 C74.6834829,136.722426 70.2973315,132.339412 70.2973315,126.939865 C70.2973315,121.543455 74.6834829,117.154166 80.0767549,117.154166 C81.7270522,117.154166 83.2769512,117.565172 84.6386034,118.286785 C88.0270465,114.901479 91.8170829,111.111443 94.8635443,108.074394 C94.1387939,106.706467 93.7277883,105.156568 93.7277883,103.50627 C93.7277883,99.1201191 96.6330646,95.402244 100.617623,94.1660897 L100.617623,89.4285442 C96.6330646,88.1829776 93.7277883,84.4713774 93.7277883,80.0789511 C93.7277883,74.6762668 98.1139397,70.2901154 103.516624,70.2901154 C108.913033,70.2901154 113.296047,74.6762668 113.296047,80.0789511 C113.296047,84.4713774 110.393909,88.1829776 106.406213,89.4285442 L106.406213,94.1660897 C110.393909,95.402244 113.296047,99.1201191 113.296047,103.50627 C113.296047,108.908955 108.913033,113.298244 103.516624,113.298244 C101.866327,113.298244 100.319565,112.880963 98.9547756,112.156213 C95.6008444,115.510144 91.7449216,119.375479 88.7298347,122.384291 C89.4451727,123.742806 89.8655906,125.292705 89.8655906,126.939865 C89.8655906,128.583887 89.4451727,130.133786 88.7298347,131.501713 C91.4186271,134.190506 95.0078668,137.776608 98.9547756,141.729792 C100.319565,141.005041 101.866327,140.594036 103.516624,140.594036 C108.913033,140.594036 113.296047,144.983324 113.296047,150.376596 C113.296047,152.017481 112.888179,153.573655 112.166566,154.935307" id="Fill-7"></path>
          <path d="M80.0783236,140.594663 C85.4715956,140.594663 89.8671594,144.983952 89.8671594,150.377224 C89.8671594,152.018109 89.4467414,153.574283 88.728266,154.935935 L98.9532069,165.157738 C100.321134,164.439263 101.864758,164.021982 103.515055,164.021982 C108.911465,164.021982 113.294479,168.411271 113.294479,173.813956 C113.294479,175.451703 112.889748,177.001602 112.168135,178.369529 L122.383664,188.59447 C123.748453,187.866582 125.30149,187.455577 126.945512,187.455577 C132.341922,187.455577 136.73121,191.838591 136.73121,197.241275 C136.73121,198.885297 136.320205,200.435196 135.595454,201.799986 L145.820395,212.021789 C147.17891,211.293902 148.731947,210.889171 150.379106,210.889171 C155.775516,210.889171 160.161667,215.281597 160.161667,220.668594 C160.161667,225.054746 157.259528,228.775758 153.271833,230.011912 L153.271833,258.189327 C157.259528,259.425481 160.161667,263.152769 160.161667,267.53892 C160.161667,272.925917 155.775516,277.327756 150.379106,277.327756 C144.982697,277.327756 140.590271,272.925917 140.590271,267.53892 C140.590271,263.152769 143.495547,259.425481 147.483242,258.189327 L147.483242,230.011912 C143.495547,228.775758 140.590271,225.054746 140.590271,220.668594 C140.590271,219.027709 141.004414,217.474673 141.722889,216.116158 C139.008997,213.402266 135.491919,209.88205 131.504223,205.881805 C130.142571,206.615968 128.589535,207.020698 126.945512,207.020698 C121.549103,207.020698 117.159814,202.634547 117.159814,197.241275 C117.159814,195.594115 117.577094,194.044216 118.292432,192.676289 C114.916539,189.306671 111.462209,185.849204 108.073766,182.448211 C106.705839,183.185511 105.162215,183.590242 103.515055,183.590242 C98.1155084,183.590242 93.7293571,179.207228 93.7293571,173.813956 C93.7293571,172.160521 94.1403627,170.616897 94.865113,169.242695 C90.930754,165.320886 87.4262253,161.810082 84.6401721,159.024029 C83.2785199,159.745642 81.7254835,160.156647 80.0783236,160.156647 C74.6850517,160.156647 70.2957628,155.773633 70.2957628,150.377224 C70.2957628,144.983952 74.6850517,140.594663 80.0783236,140.594663" id="Fill-9"></path>
          <path d="M33.218665,136.723681 C27.8191181,136.723681 23.4298293,132.340667 23.4298293,126.937982 C23.4298293,121.54471 27.8191181,117.155421 33.218665,117.155421 C38.611937,117.155421 42.9980884,121.54471 42.9980884,126.937982 C42.9980884,132.340667 38.611937,136.723681 33.218665,136.723681" id="Fill-12"></path>
          <path d="M89.8659044,103.50627 C89.8659044,108.908955 85.4734781,113.298244 80.0770687,113.298244 C78.4361837,113.298244 76.8831473,112.880963 75.5246326,112.156213 L65.2996917,122.387429 C66.0213045,123.742806 66.4354476,125.292705 66.4354476,126.939865 C66.4354476,132.339412 62.0461588,136.722426 56.6466119,136.722426 C55.0057269,136.722426 53.4526905,136.314557 52.0910383,135.599219 L41.8660974,145.811611 C42.5877103,147.1764 42.9987159,148.735711 42.9987159,150.376596 C42.9987159,155.776143 38.6125645,160.15602 33.2192925,160.15602 C31.5658578,160.15602 30.0190962,159.745014 28.6574441,159.023401 L18.4325032,169.245205 C19.1509786,170.616269 19.5682591,172.159893 19.5682591,173.816466 C19.5682591,179.2066 15.1758328,183.589614 9.78256083,183.589614 C4.38615139,183.589614 6.39488462e-14,179.2066 6.39488462e-14,173.816466 C6.39488462e-14,168.410644 4.38615139,164.024492 9.78256083,164.024492 C11.4265832,164.024492 12.9796197,164.438635 14.3412718,165.157111 C17.1241876,162.36792 20.6349912,158.869666 24.5693502,154.935307 C23.8445998,153.573655 23.4304568,152.017481 23.4304568,150.376596 C23.4304568,144.983324 27.8197456,140.594036 33.2192925,140.594036 C34.8601775,140.594036 36.4132139,141.005041 37.7717286,141.729792 C41.1664467,138.328799 44.6145013,134.880744 47.9935321,131.501713 C47.2781941,130.133786 46.8671885,128.583887 46.8671885,126.939865 C46.8671885,121.546593 51.2502024,117.157304 56.6466119,117.157304 C58.2937717,117.157304 59.8436707,117.565172 61.2115978,118.286785 C65.1930184,114.299089 68.7132344,110.785148 71.4302638,108.074394 C70.7117883,106.709604 70.2976453,105.156568 70.2976453,103.50627 C70.2976453,99.1232565 73.2029215,95.402244 77.1843422,94.1660897 L77.1843422,89.4285442 C73.2029215,88.1829776 70.2976453,84.4713774 70.2976453,80.0789511 C70.2976453,75.6896623 73.2029215,71.9623748 77.1843422,70.7324955 L77.1843422,65.9918125 C73.2029215,64.7556583 70.2976453,61.0377832 70.2976453,56.6453569 C70.2976453,51.2520849 74.6837967,46.8627961 80.0770687,46.8627961 C85.4734781,46.8627961 89.8659044,51.2520849 89.8659044,56.6453569 C89.8659044,61.0377832 86.9606281,64.7556583 82.9729326,65.9918125 L82.9729326,70.7324955 C86.9606281,71.9686497 89.8659044,75.6896623 89.8659044,80.0789511 C89.8659044,84.4651025 86.9606281,88.1829776 82.9729326,89.4285442 L82.9729326,94.1660897 C86.9606281,95.4085189 89.8659044,99.1232565 89.8659044,103.50627" id="Fill-14"></path>
          <path d="M56.6453569,113.296989 C51.2520849,113.296989 46.8659335,108.9077 46.8659335,103.505015 C46.8659335,98.1211558 51.2520849,93.7287296 56.6453569,93.7287296 C62.0386289,93.7287296 66.4373301,98.1211558 66.4373301,103.505015 C66.4373301,108.9077 62.0386289,113.296989 56.6453569,113.296989" id="Fill-16"></path>
          <path d="M103.515683,136.723681 C98.1129985,136.723681 93.7268471,132.340667 93.7268471,126.937982 C93.7268471,121.54471 98.1129985,117.155421 103.515683,117.155421 C108.90268,117.155421 113.295106,121.54471 113.295106,126.937982 C113.295106,132.340667 108.90268,136.723681 103.515683,136.723681" id="Fill-18"></path>
          <path d="M173.812387,66.4298002 C168.41284,66.4298002 164.026689,62.0405113 164.026689,56.6472394 C164.026689,51.2508299 168.41284,46.8615411 173.812387,46.8615411 C179.202521,46.8615411 183.598085,51.2508299 183.598085,56.6472394 C183.598085,62.0405113 179.202521,66.4298002 173.812387,66.4298002" id="Fill-20"></path>
          <path d="M200.137766,19.125879 L200.137766,47.2970188 C204.122324,48.5363105 207.033876,52.257323 207.033876,56.6466119 C207.033876,62.0398839 202.635174,66.4291727 197.238765,66.4291727 C195.601017,66.4291727 194.047981,66.0118922 192.683191,65.2965542 L182.458251,75.5183577 C183.179863,76.8831473 183.597144,78.4330463 183.597144,80.0802061 C183.597144,85.4734781 179.20158,89.8627669 173.811446,89.8627669 C172.161148,89.8627669 170.611249,89.4486239 169.24646,88.7301484 L159.027794,98.945677 C159.752544,100.310467 160.16355,101.86664 160.16355,103.507525 C160.16355,108.907072 155.777398,113.296361 150.377851,113.296361 C148.730692,113.296361 147.177655,112.882218 145.822278,112.157468 L135.597337,122.385546 C136.31895,123.744061 136.729955,125.29396 136.729955,126.937982 C136.729955,132.340667 132.343804,136.723681 126.944257,136.723681 C121.547848,136.723681 117.161696,132.340667 117.161696,126.937982 C117.161696,121.54471 121.547848,117.155421 126.944257,117.155421 C128.591417,117.155421 130.144453,117.56329 131.506106,118.28804 C134.289021,115.501987 137.79355,112.000595 141.724772,108.075649 C141.003159,106.707722 140.592153,105.157823 140.592153,103.507525 C140.592153,98.1205284 144.981442,93.7281021 150.377851,93.7281021 C152.025011,93.7281021 153.57491,94.1391077 154.936562,94.8544457 C158.325006,91.4754149 161.78561,88.0210853 165.158366,84.6389171 C164.436753,83.2678526 164.028885,81.7179536 164.028885,80.0802061 C164.028885,74.6775218 168.415036,70.2882329 173.811446,70.2882329 C175.455468,70.2882329 177.00223,70.702376 178.370157,71.4271263 C182.36099,67.4331558 185.878068,63.9254897 188.595098,61.199048 C187.873485,59.8342584 187.459342,58.2906343 187.459342,56.6466119 C187.459342,52.257323 190.36148,48.5363105 194.355451,47.2970188 L194.355451,19.125879 C190.36148,17.8897248 187.459342,14.1624373 187.459342,9.77942338 C187.459342,4.38615139 191.84863,4.26325641e-14 197.238765,4.26325641e-14 C202.635174,4.26325641e-14 207.033876,4.38615139 207.033876,9.77942338 C207.033876,14.1624373 204.122324,17.8897248 200.137766,19.125879" id="Fill-22"></path>
        </g>
      </g>
    </g>
  </g>
</svg>
